<svg width="573" height="473" viewBox="0 0 573 473" fill="none" xmlns="http://www.w3.org/2000/svg">
<path d="M238.058 344.153C240.367 340.153 246.141 340.153 248.45 344.153L289.88 415.912C292.19 419.912 289.303 424.912 284.684 424.912H201.824C197.205 424.912 194.318 419.912 196.627 415.912L238.058 344.153Z" fill="#E77B3D"/>
<path d="M224.277 324.465C228.891 324.657 231.567 329.773 229.094 333.673L184.711 403.646C182.237 407.546 176.469 407.306 174.328 403.213L135.921 329.791C133.781 325.698 136.873 320.822 141.488 321.015L224.277 324.465Z" fill="#E77B3D"/>
<path d="M286.11 243.472C290.472 241.954 294.841 245.728 293.974 250.265L278.422 331.653C277.555 336.189 272.102 338.086 268.606 335.067L205.899 280.904C202.403 277.885 203.487 272.214 207.849 270.696L286.11 243.472Z" fill="#E77B3D"/>
<path d="M371.883 364.532C374.483 368.35 371.976 373.55 367.37 373.893L284.738 380.049C280.132 380.392 276.882 375.62 278.887 371.459L314.873 296.821C316.879 292.66 322.636 292.231 325.236 296.049L371.883 364.532Z" fill="#E77B3D"/>
<path d="M137.181 202.178C139.49 198.178 145.264 198.178 147.573 202.178L189.004 273.938C191.313 277.938 188.426 282.938 183.807 282.938H100.947C96.328 282.938 93.4412 277.938 95.7506 273.938L137.181 202.178Z" fill="#E77B3D"/>
<path d="M123.4 182.49C128.015 182.682 130.691 187.798 128.217 191.699L83.8344 261.671C81.3604 265.571 75.5919 265.331 73.4511 261.238L35.0446 187.816C32.9038 183.723 35.9962 178.848 40.611 179.04L123.4 182.49Z" fill="#E77B3D"/>
<path d="M185.233 101.497C189.595 99.9794 193.965 103.753 193.098 108.29L177.545 189.678C176.678 194.215 171.225 196.112 167.73 193.093L105.022 138.929C101.526 135.91 102.61 130.239 106.973 128.722L185.233 101.497Z" fill="#E77B3D"/>
<path d="M271.006 222.557C273.606 226.375 271.099 231.575 266.493 231.919L183.861 238.074C179.255 238.417 176.005 233.645 178.011 229.485L213.996 154.846C216.002 150.685 221.759 150.256 224.36 154.074L271.006 222.557Z" fill="#E77B3D"/>
<path d="M368.824 183.497C371.133 179.497 376.907 179.497 379.216 183.497L420.647 255.257C422.956 259.257 420.069 264.257 415.45 264.257H332.59C327.971 264.257 325.084 259.257 327.394 255.257L368.824 183.497Z" fill="#E77B3D"/>
<path d="M355.043 163.809C359.658 164.002 362.334 169.117 359.86 173.018L315.477 242.99C313.003 246.89 307.235 246.65 305.094 242.557L266.688 169.135C264.547 165.042 267.639 160.167 272.254 160.359L355.043 163.809Z" fill="#E77B3D"/>
<path d="M416.876 82.8161C421.238 81.2985 425.608 85.0724 424.741 89.6091L409.188 170.997C408.321 175.534 402.868 177.431 399.373 174.412L336.665 120.249C333.169 117.229 334.253 111.558 338.615 110.041L416.876 82.8161Z" fill="#E77B3D"/>
<path d="M502.649 203.877C505.249 207.694 502.742 212.895 498.136 213.238L415.504 219.393C410.898 219.736 407.648 214.964 409.654 210.804L445.639 136.165C447.645 132.004 453.402 131.576 456.003 135.393L502.649 203.877Z" fill="#E77B3D"/>
</svg>
